# xmcd
#
# Track frame offsets:
#	150
#	21414
#	39428
#	57109
#	75319
#	89699
#	109075
#	127793
#	145690
#	164815
#	186313
#	207448
#	224251
#	242103
#	260529
#	278416
#	295952
#	312799
#	332247
#
# Disc length: 4662 seconds
#
# Revision: 0
# Processed by: cddbd v1.4PL0 Copyright (c) Steve Scherf et al.
# Submitted via: EasyCDDAExtractor 4.6.0.1
#
DISCID=19123413
DTITLE=Cher - Ultimate Collection
DYEAR=1900
DGENRE=Blues
TTITLE0=The music's no good without you
TTITLE1=Belive
TTITLE2=Walking in Memphis
TTITLE3=If I Could Turn Back Time
TTITLE4=I Got You Baby
TTITLE5=Dov'e L'amore
TTITLE6=Many Rivers To Cross
TTITLE7=All Or Nothing
TTITLE8=Love Hurts
TTITLE9=Runaway
TTITLE10=Love And Understanding
TTITLE11=Strong Enough
TTITLE12=Save Up All Your Tears
TTITLE13=Whenever You Near
TTITLE14=Body To Body, Heart To Heart
TTITLE15=Love Is A Lonely Place Without You
TTITLE16=Love One Another
TTITLE17=Alive Again
TTITLE18=A Different Kind Of Love Song
EXTD=
EXTT0=
EXTT1=
EXTT2=
EXTT3=
EXTT4=
EXTT5=
EXTT6=
EXTT7=
EXTT8=
EXTT9=
EXTT10=
EXTT11=
EXTT12=
EXTT13=
EXTT14=
EXTT15=
EXTT16=
EXTT17=
EXTT18=
PLAYORDER=
